<svg width="20" height="20" viewBox="0 0 20 20" fill="none" xmlns="http://www.w3.org/2000/svg">
<path d="M11.5167 18.3333H8.48335C8.09178 18.3333 7.75298 18.0608 7.66918 17.6783L7.33001 16.1083C6.87756 15.9101 6.44853 15.6622 6.05085 15.3692L4.52001 15.8567C4.14668 15.9757 3.74084 15.8186 3.54501 15.4792L2.02501 12.8533C1.83134 12.5138 1.89806 12.0854 2.18585 11.8208L3.37335 10.7375C3.31934 10.2467 3.31934 9.75156 3.37335 9.26082L2.18585 8.17999C1.89764 7.9153 1.83089 7.48642 2.02501 7.14666L3.54168 4.51916C3.7375 4.17974 4.14335 4.0226 4.51668 4.14166L6.04751 4.62916C6.2509 4.47845 6.46262 4.33934 6.68168 4.21249C6.89196 4.0939 7.10838 3.98653 7.33001 3.89082L7.67001 2.32249C7.7534 1.93996 8.09184 1.66707 8.48335 1.66666H11.5167C11.9082 1.66707 12.2466 1.93996 12.33 2.32249L12.6733 3.89166C12.9073 3.99459 13.1352 4.11089 13.3558 4.23999C13.5619 4.35897 13.7611 4.48945 13.9525 4.63082L15.4842 4.14332C15.8573 4.02471 16.2626 4.18179 16.4583 4.52082L17.975 7.14832C18.1687 7.48789 18.102 7.91625 17.8142 8.18082L16.6267 9.26416C16.6807 9.7549 16.6807 10.2501 16.6267 10.7408L17.8142 11.8242C18.102 12.0887 18.1687 12.5171 17.975 12.8567L16.4583 15.4842C16.2626 15.8232 15.8573 15.9803 15.4842 15.8617L13.9525 15.3742C13.7587 15.5169 13.5573 15.649 13.3492 15.77C13.1307 15.8966 12.9054 16.0109 12.6742 16.1125L12.33 17.6783C12.2463 18.0605 11.9079 18.333 11.5167 18.3333ZM9.99668 6.66666C8.15573 6.66666 6.66335 8.15904 6.66335 9.99999C6.66335 11.8409 8.15573 13.3333 9.99668 13.3333C11.8376 13.3333 13.33 11.8409 13.33 9.99999C13.33 8.15904 11.8376 6.66666 9.99668 6.66666Z" fill="#51515C"/>
</svg>
