<svg width="18" height="18" viewBox="0 0 18 18" fill="none" xmlns="http://www.w3.org/2000/svg">
<path fill-rule="evenodd" clip-rule="evenodd" d="M14.25 9.75V5.25C14.25 4.8 13.95 4.5 13.5 4.5H12C12 3.225 11.025 2.25 9.75 2.25H8.25C6.975 2.25 6 3.225 6 4.5H4.5C4.05 4.5 3.75 4.8 3.75 5.25V7.875V9.75C2.475 9.75 1.5 10.725 1.5 12V13.5C1.5 14.775 2.475 15.75 3.75 15.75H5.25C6.525 15.75 7.5 14.775 7.5 13.5V12C7.5 10.725 6.525 9.75 5.25 9.75V6H6C6 7.275 6.975 8.25 8.25 8.25H9.75C11.025 8.25 12 7.275 12 6H12.75V9.75C11.475 9.75 10.5 10.725 10.5 12V13.5C10.5 14.775 11.475 15.75 12.75 15.75H14.25C15.525 15.75 16.5 14.775 16.5 13.5V12C16.5 10.725 15.525 9.75 14.25 9.75ZM6 12V13.5C6 13.95 5.7 14.25 5.25 14.25H3.75C3.3 14.25 3 13.95 3 13.5V12C3 11.55 3.3 11.25 3.75 11.25H5.25C5.7 11.25 6 11.55 6 12ZM10.5 6C10.5 6.45 10.2 6.75 9.75 6.75H8.25C7.8 6.75 7.5 6.45 7.5 6V4.5C7.5 4.05 7.8 3.75 8.25 3.75H9.75C10.2 3.75 10.5 4.05 10.5 4.5V6ZM15 13.5C15 13.95 14.7 14.25 14.25 14.25H12.75C12.3 14.25 12 13.95 12 13.5V12C12 11.55 12.3 11.25 12.75 11.25H14.25C14.7 11.25 15 11.55 15 12V13.5Z" fill="#51515C"/>
</svg>
