<svg width="18" height="18" viewBox="0 0 18 18" fill="none" xmlns="http://www.w3.org/2000/svg">
<path d="M12.7165 14.9319C14.0015 14.1268 14.9903 12.9262 15.5342 11.5108C16.0781 10.0953 16.1477 8.54153 15.7324 7.08314C15.3172 5.62475 14.4396 4.34062 13.2317 3.42393C12.0238 2.50725 10.5509 2.00758 9.03459 2.00009C7.51825 1.99259 6.04048 2.47769 4.82358 3.38239C3.60668 4.28709 2.71646 5.56249 2.28684 7.01671C1.85721 8.47092 1.91142 10.0253 2.44129 11.4461C2.97117 12.8669 3.94807 14.0771 5.22503 14.8949L6.0168 13.6585C5.00767 13.0122 4.23567 12.0558 3.81693 10.933C3.39819 9.81028 3.35535 8.58189 3.69487 7.43268C4.03438 6.28348 4.73789 5.27559 5.69955 4.56064C6.66122 3.84569 7.82904 3.46234 9.02733 3.46826C10.2256 3.47418 11.3896 3.86905 12.3442 4.59347C13.2987 5.31789 13.9922 6.33268 14.3204 7.48519C14.6485 8.63769 14.5935 9.86559 14.1637 10.9842C13.7339 12.1027 12.9525 13.0515 11.937 13.6877L12.7165 14.9319Z" fill="#51515C"/>
<path d="M11.8017 5.10616L8.00002 8.88022L9.0766 9.65414L11.8017 5.10616Z" fill="#51515C"/>
</svg>
