<svg width="17" height="18" viewBox="0 0 17 18" fill="none" xmlns="http://www.w3.org/2000/svg">
<path d="M15 6.15484H14.5232C14.5162 6.108 14.502 6.01768 14.4808 5.88387C14.3396 4.90036 13.9546 4.12425 13.326 3.55556C12.6691 2.9601 11.825 2.66237 10.7938 2.66237H10.2323V13.8222C10.2323 14.9462 10.8256 15.5283 12.0122 15.5685V16H4.99837V15.5685C6.185 15.5283 6.77832 14.9462 6.77832 13.8222V2.66237H6.21679C5.18555 2.66237 4.34148 2.9601 3.6846 3.55556C3.05596 4.12425 2.67101 4.90036 2.52975 5.88387C2.51562 5.95747 2.49796 6.04779 2.47677 6.15484H2V2H15V6.15484Z" fill="#51515C"/>
</svg>
